<?xml version="1.0" encoding="UTF-8"?>
<svg width="102px" height="103px" viewBox="0 0 102 103" version="1.1" xmlns="http://www.w3.org/2000/svg" xmlns:xlink="http://www.w3.org/1999/xlink">
    <!-- Generator: Sketch 53.2 (72643) - https://sketchapp.com -->
    <title>RA-logo</title>
    <desc>Created with Sketch.</desc>
    <g id="Material-Design---Artboards" stroke="none" stroke-width="1" fill="none" fill-rule="evenodd">
        <g id="HOME" transform="translate(-26.000000, -30.000000)" fill="#0545B2">
            <g id="logo/ra-blue" transform="translate(25.000000, 30.000000)">
                <g id="Group-8" transform="translate(1.000000, 0.000000)">
                    <path d="M50.5785545,2.34449117 C23.4697364,2.34449117 1.41548182,24.4203366 1.41548182,51.5547658 C1.41548182,78.689195 23.4697364,100.76504 50.5785545,100.76504 C77.6864455,100.76504 99.7416273,78.689195 99.7416273,51.5547658 C99.7416273,24.4203366 77.6864455,2.34449117 50.5785545,2.34449117 M50.5785545,102.181444 C22.6889727,102.181444 -0.000463636364,79.470723 -0.000463636364,51.5547658 C-0.000463636364,23.6388086 22.6889727,0.928087699 50.5785545,0.928087699 C78.4653545,0.928087699 101.155718,23.6388086 101.155718,51.5547658 C101.155718,79.470723 78.4653545,102.181444 50.5785545,102.181444" id="Fill-1"></path>
                    <path d="M35.9377527,41.1554313 L35.9377527,45.714654 L36.0462436,45.714654 C36.6962618,44.3400187 37.5734618,43.1556603 38.6750618,42.1597226 C39.7785164,41.1647131 41.2334073,40.6672084 43.0406618,40.6672084 C44.5586073,40.6672084 45.7872436,41.0746796 46.7293527,41.8877657 C47.6677527,42.7027082 48.13788,43.8341603 48.13788,45.2811937 C48.13788,46.3662367 47.8754618,47.2164501 47.35248,47.8318338 C46.8267164,48.4472174 45.9866073,48.753517 44.8312255,48.753517 C43.9985345,48.753517 43.2390982,48.5827318 42.5529164,48.2383768 C41.8667345,47.89495 41.5227164,47.2526491 41.5227164,46.3114741 C41.5227164,46.202877 41.5403345,46.0125999 41.5774255,45.7415712 C41.6135891,45.4705425 41.6580982,45.1809502 41.7137345,44.8737225 C41.7665891,44.5664947 41.8120255,44.285256 41.8481891,44.0318627 C41.8834255,43.7793976 41.9028982,43.6346015 41.9028982,43.5974742 C41.8667345,43.3088101 41.8120255,43.0823341 41.7396982,42.9199025 C41.6673709,42.7565427 41.5496073,42.6126747 41.3864073,42.485514 C41.2241345,42.3592814 40.9802618,42.295237 40.6557164,42.295237 C40.29408,42.295237 39.8415709,42.4678786 39.3000436,42.8103772 C38.7575891,43.1556603 38.2503709,43.6522369 37.7811709,44.3038196 C37.3110436,44.9544742 36.9048982,45.7415712 36.56088,46.6641827 C36.2177891,47.5867941 36.0462436,48.6282126 36.0462436,49.7847256 L36.0462436,63.6795879 L40.3293164,63.6795879 L40.3293164,64.4397678 L25.9074436,64.4397678 L25.9074436,63.6795879 L29.43108,63.6795879 L29.43108,41.9156111 L25.9074436,41.9156111 L25.9074436,41.1554313 L35.9377527,41.1554313 Z" id="Fill-4"></path>
                    <path d="M64.1870236,50.9796652 C64.1146964,51.1968594 63.97746,51.4047718 63.7808782,51.6034025 C63.5815145,51.8029613 63.2291509,52.0294373 62.72286,52.2819024 C62.0357509,52.6076938 61.3477145,52.9242034 60.6633873,53.2314311 C59.9753509,53.539587 59.3614964,53.9284947 58.8190418,54.398154 C58.2765873,54.8696697 57.8324236,55.4488544 57.4893327,56.1357079 C57.1453145,56.8234897 56.9756236,57.7089739 56.9756236,58.7949451 C56.9756236,59.2293336 57.0025145,59.7370483 57.0562964,60.3143766 C57.1110055,60.8935613 57.2538055,61.4541823 57.4893327,61.9971679 C57.72486,62.5401535 58.0781509,63.0014592 58.5482782,63.3810851 C59.0174782,63.7616391 59.6684236,63.9509879 60.49926,63.9509879 C60.96846,63.9509879 61.4302418,63.8423908 61.8827509,63.6251965 C62.3343327,63.4080023 62.7404782,63.0738573 63.1030418,62.6209052 C63.4637509,62.1698095 63.7521327,61.5720612 63.9700418,60.830445 C64.1870236,60.0888288 64.2955145,59.1940627 64.2955145,58.1433624 L64.2955145,50.9796652 L64.1870236,50.9796652 Z M73.0526782,64.928362 C72.0938782,65.07223 71.19906,65.1455562 70.3682236,65.1455562 C68.5248055,65.1455562 67.15986,64.8197649 66.2752418,64.1681821 C65.3878418,63.5165994 64.8379691,62.6125516 64.6209873,61.4541823 L64.5124964,61.4541823 C63.9338782,62.9021439 63.1382782,63.879518 62.1266236,64.3853764 C61.1140418,64.8912348 59.6489509,65.1455562 57.7341327,65.1455562 C56.8671327,65.1455562 55.98066,65.0545945 55.0774964,64.8735993 C54.1743327,64.6926041 53.3425691,64.40394 52.5822055,64.0057505 C51.8246236,63.6075611 51.2089145,63.0552937 50.7397145,62.3498765 C50.2705145,61.6444593 50.03406,60.7858923 50.03406,59.7723192 C50.03406,58.722547 50.2436236,57.8454165 50.6581145,57.1399993 C51.0726055,56.4336539 51.61506,55.8368338 52.2854782,55.3486109 C52.9540418,54.8603879 53.7134782,54.4621985 54.56286,54.1549707 C55.4113145,53.847743 56.2885145,53.5488688 57.1926055,53.2592765 C58.6743873,52.824888 59.8761327,52.454544 60.7978418,52.1463881 C61.7195509,51.8391603 62.4326236,51.513369 62.9389145,51.169014 C63.4461327,50.8265154 63.7984964,50.4366796 63.9969327,50.0022911 C64.1953691,49.5679026 64.2955145,49.0072816 64.2955145,48.3194998 L64.2955145,45.0096081 C64.2955145,44.032234 64.05906,43.1458216 63.5889327,42.3494427 C63.12066,41.553992 62.2351145,41.1558026 60.9341509,41.1558026 C60.10146,41.1558026 59.3781873,41.3460796 58.7643327,41.7257054 C58.1486236,42.1053312 57.8435509,42.8023948 57.8435509,43.8150398 C57.8435509,43.9236369 57.8611691,44.1139139 57.8973327,44.3849426 C57.9325691,44.6559713 57.96966,44.9548454 58.0048964,45.2806368 C58.04106,45.6064282 58.0781509,45.9136559 58.1143145,46.2032482 C58.1486236,46.4928405 58.1680964,46.6914712 58.1680964,46.8000683 C58.1680964,47.3430539 58.04106,47.7690888 57.7897691,48.0753883 C57.5356964,48.3835443 57.2371145,48.6100203 56.8940236,48.7538883 C56.5500055,48.8996126 56.1902236,48.9803643 55.8100418,48.9979998 C55.4307873,49.0174916 55.11366,49.024917 54.8595873,49.024917 C54.4988782,49.024917 54.1279691,48.9979998 53.7487145,48.9441653 C53.36946,48.8894026 53.0356418,48.7631701 52.7463327,48.5645395 C52.4570236,48.3659088 52.2122236,48.0846701 52.0137873,47.7236079 C51.8153509,47.3616175 51.7161327,46.8733946 51.7161327,46.2570827 C51.7161327,45.3168358 51.9785509,44.4759043 52.5015327,43.7342881 C53.0254418,42.9926718 53.7218236,42.3772881 54.5888236,41.888137 C55.4576782,41.3999141 56.4415145,41.02957 57.5449691,40.7761767 C58.6465691,40.5227835 59.79546,40.3956227 60.9879327,40.3956227 C62.3602964,40.3956227 63.6529145,40.5042199 64.86486,40.7214141 C66.0758782,40.9386083 67.1236964,41.337726 68.0101691,41.9150542 C68.8947873,42.4951671 69.6004418,43.281336 70.1243509,44.2763455 C70.64826,45.2722832 70.9106782,46.5290396 70.9106782,48.0484711 L70.9106782,61.508945 C70.9106782,62.1967267 71.0089691,62.8028286 71.2074055,63.3272506 C71.4067691,63.8516726 71.9037873,64.1134195 72.7003145,64.1134195 C73.1695145,64.1134195 73.5571145,64.0243142 73.8658964,63.8423908 C74.1728236,63.6623238 74.4704782,63.4080023 74.75886,63.0822109 L75.24846,63.5713621 C74.7421691,64.3315419 74.0096236,64.7826376 73.0526782,64.928362 L73.0526782,64.928362 Z" id="Fill-6"></path>
                </g>
            </g>
        </g>
    </g>
</svg>