<?xml version="1.0" encoding="UTF-8"?>
<svg width="69px" height="69px" viewBox="0 0 69 69" version="1.1" xmlns="http://www.w3.org/2000/svg" xmlns:xlink="http://www.w3.org/1999/xlink">
    <!-- Generator: Sketch 53.2 (72643) - https://sketchapp.com -->
    <title>RA-logo</title>
    <desc>Created with Sketch.</desc>
    <g id="Material-Design---Artboards" stroke="none" stroke-width="1" fill="none" fill-rule="evenodd">
        <g id="Mobile/home-nav" transform="translate(-10.000000, -10.000000)" fill="#FFFFFF">
            <g id="logo/ra-white" transform="translate(10.000000, 10.000000)">
                <g id="Group-8" transform="translate(0.673077, 0.000000)">
                    <path d="M34.0432579,1.5780229 C15.7969379,1.5780229 0.952728147,16.436765 0.952728147,34.7003231 C0.952728147,52.9638813 15.7969379,67.8226234 34.0432579,67.8226234 C52.2889537,67.8226234 67.1337876,52.9638813 67.1337876,34.7003231 C67.1337876,16.436765 52.2889537,1.5780229 34.0432579,1.5780229 M34.0432579,68.7759719 C15.271424,68.7759719 -0.000312062937,53.4899097 -0.000312062937,34.7003231 C-0.000312062937,15.9107365 15.271424,0.624674413 34.0432579,0.624674413 C52.8132194,0.624674413 68.0855795,15.9107365 68.0855795,34.7003231 C68.0855795,53.4899097 52.8132194,68.7759719 34.0432579,68.7759719" id="Fill-1"></path>
                    <path d="M24.188872,27.7007711 L24.188872,30.7694787 L24.2618948,30.7694787 C24.699407,29.8442433 25.2898301,29.0470791 26.0312916,28.3767364 C26.7740014,27.7070184 27.7532549,27.3721595 28.9696762,27.3721595 C29.9913703,27.3721595 30.8183371,27.646419 31.452449,28.1936885 C32.0840643,28.7422075 32.4004962,29.5037617 32.4004962,30.4777265 C32.4004962,31.208044 32.2238685,31.7803029 31.8718615,32.1945035 C31.5179822,32.608704 30.9525241,32.8148672 30.1748633,32.8148672 C29.6143983,32.8148672 29.1032392,32.6999156 28.641386,32.4681383 C28.1795329,32.2369856 27.9479822,31.8046677 27.9479822,31.1711845 C27.9479822,31.0980903 27.9598406,30.9700192 27.9848056,30.787596 C28.0091465,30.6051729 28.0391045,30.4102549 28.0765521,30.203467 C28.1121273,29.9966791 28.1427094,29.8073839 28.1670503,29.6368307 C28.1907671,29.4669022 28.2038738,29.3694433 28.2038738,29.3444538 C28.1795329,29.1501606 28.1427094,28.9977248 28.0940276,28.8883959 C28.0453458,28.7784422 27.9660818,28.681608 27.8562357,28.596019 C27.7470136,28.5110548 27.5828685,28.467948 27.3644245,28.467948 C27.1210154,28.467948 26.816442,28.584149 26.4519524,28.8146769 C26.0868388,29.0470791 25.745442,29.3813133 25.4296343,29.8198786 C25.1132024,30.2578191 24.8398353,30.787596 24.6082846,31.4085845 C24.377358,32.029573 24.2618948,32.7305277 24.2618948,33.5089499 L24.2618948,42.8612611 L27.1447322,42.8612611 L27.1447322,43.3729206 L17.4377024,43.3729206 L17.4377024,42.8612611 L19.8093808,42.8612611 L19.8093808,28.2124306 L17.4377024,28.2124306 L17.4377024,27.7007711 L24.188872,27.7007711 Z" id="Fill-4"></path>
                    <path d="M43.2028044,34.3132362 C43.1541226,34.4594246 43.0617519,34.5993657 42.9294372,34.7330594 C42.7952502,34.8673778 42.5580823,35.0198136 42.2173096,35.189742 C41.7548323,35.4090247 41.2917309,35.6220599 40.831126,35.8288479 C40.3680247,36.0362605 39.9548533,36.2980253 39.5897397,36.6141421 C39.224626,36.9315085 38.9256698,37.3213443 38.6947432,37.7836496 C38.4631925,38.2465796 38.3489774,38.8425786 38.3489774,39.5735208 C38.3489774,39.8658976 38.3670771,40.2076287 38.4032764,40.596215 C38.4400998,40.9860509 38.5362152,41.3633919 38.6947432,41.728863 C38.8532712,42.0943341 39.0910631,42.4048283 39.4074949,42.6603457 C39.7233026,42.9164878 40.161439,43.0439342 40.7206558,43.0439342 C41.0364635,43.0439342 41.3472781,42.9708399 41.6518516,42.8246515 C41.9558009,42.6784631 42.229168,42.4535578 42.4732012,42.1486862 C42.7159862,41.8450641 42.9100893,41.4427335 43.0567589,40.9435687 C43.2028044,40.444404 43.2758271,39.8421576 43.2758271,39.1349555 L43.2758271,34.3132362 L43.2028044,34.3132362 Z M49.1700719,43.7017821 C48.5247257,43.7986163 47.9224442,43.8479705 47.3632274,43.8479705 C46.1224652,43.8479705 45.2037519,43.6286879 44.6083358,43.1901226 C44.0110474,42.7515573 43.6409407,42.1430636 43.4948953,41.3633919 L43.4218726,41.3633919 C43.032418,42.3379815 42.496918,42.9958294 41.8159967,43.336311 C41.1344512,43.6767926 40.1483323,43.8479705 38.8595124,43.8479705 C38.2759547,43.8479705 37.6792904,43.7867463 37.0713918,43.6649226 C36.4634932,43.5430989 35.9036523,43.3488058 35.3918691,43.0807936 C34.8819582,42.8127815 34.4675386,42.4410631 34.1517309,41.966263 C33.8359233,41.491463 33.6767712,40.9135814 33.6767712,40.2313687 C33.6767712,39.5247913 33.8178236,38.9344149 34.0968079,38.4596149 C34.3757921,37.9841901 34.7409058,37.5824843 35.1921488,37.2538727 C35.6421435,36.9252611 36.1533026,36.657249 36.7250019,36.4504611 C37.2960771,36.2436731 37.8865002,36.0425079 38.4950229,35.84759 C39.492376,35.5552131 40.3012432,35.3059431 40.9216243,35.0985304 C41.5420054,34.8917425 42.0219582,34.6724599 42.3627309,34.4406825 C42.7041278,34.2101546 42.9412956,33.9477651 43.0748586,33.6553882 C43.2084215,33.3630114 43.2758271,32.9856703 43.2758271,32.5227403 L43.2758271,30.2949285 C43.2758271,29.6370806 43.116675,29.0404568 42.8002432,28.5044326 C42.4850596,27.9690331 41.8890194,27.701021 41.0133708,27.701021 C40.4529058,27.701021 39.9660876,27.829092 39.5529163,28.0846094 C39.1384967,28.3401268 38.9331593,28.8093042 38.9331593,29.4908921 C38.9331593,29.5639864 38.9450177,29.6920574 38.9693586,29.8744806 C38.9930753,30.0569038 39.0180404,30.258069 39.0417572,30.4773517 C39.0660981,30.6966343 39.0910631,30.9034222 39.115404,31.0983402 C39.1384967,31.2932581 39.1516033,31.4269518 39.1516033,31.500046 C39.1516033,31.865517 39.0660981,32.1522713 38.89696,32.3584345 C38.7259495,32.5658471 38.5249809,32.7182829 38.2940544,32.8151171 C38.0625037,32.9132008 37.8203428,32.9675529 37.5644512,32.9794229 C37.3091837,32.9925424 37.0957327,32.9975403 36.9247222,32.9975403 C36.6819372,32.9975403 36.4322869,32.9794229 36.1770194,32.9431882 C35.9217519,32.9063287 35.6970666,32.8213645 35.5023393,32.6876708 C35.3076121,32.5539771 35.1428428,32.3646818 35.0092799,32.1216592 C34.875717,31.8780118 34.8089355,31.5494002 34.8089355,31.1345749 C34.8089355,30.5017164 34.9855631,29.9357048 35.3375701,29.43654 C35.6902012,28.9373753 36.1589198,28.5231747 36.7424774,28.1939384 C37.3272834,27.8653268 37.9894809,27.6160567 38.7321907,27.4455036 C39.4736523,27.2749504 40.2469442,27.1893615 41.0495701,27.1893615 C41.9732764,27.1893615 42.8433079,27.2624557 43.6590404,27.4086441 C44.4741488,27.5548325 45.179411,27.8234694 45.7760753,28.2120557 C46.3714914,28.6025163 46.8464512,29.1316684 47.1990823,29.8013864 C47.5517135,30.4717291 47.7283411,31.3176228 47.7283411,32.3403171 L47.7283411,41.4002514 C47.7283411,41.8631814 47.7944984,42.2711346 47.9280614,42.624111 C48.0622484,42.9770873 48.3967799,43.1532631 48.932904,43.1532631 C49.2487117,43.1532631 49.5095963,43.0932884 49.7174302,42.9708399 C49.9240159,42.849641 50.1243603,42.6784631 50.3184635,42.4591804 L50.6480019,42.7884168 C50.3072292,43.3000763 49.8141698,43.6036984 49.1700719,43.7017821 L49.1700719,43.7017821 Z" id="Fill-6"></path>
                </g>
            </g>
        </g>
    </g>
</svg>