<?xml version="1.0" encoding="UTF-8"?>
<svg width="187px" height="21px" viewBox="0 0 187 21" version="1.1" xmlns="http://www.w3.org/2000/svg" xmlns:xlink="http://www.w3.org/1999/xlink">
    <!-- Generator: Sketch 53.2 (72643) - https://sketchapp.com -->
    <title>Group 27</title>
    <desc>Created with Sketch.</desc>
    <defs>
        <polygon id="path-1" points="0 0.419766667 5.29440864 0.419766667 5.29440864 9.91098889 0 9.91098889"></polygon>
        <polygon id="path-3" points="0 20.3885889 186.736815 20.3885889 186.736815 -7.77777778e-05 0 -7.77777778e-05"></polygon>
    </defs>
    <g id="Page-1" stroke="none" stroke-width="1" fill="none" fill-rule="evenodd">
        <g id="Product-List-HOVER" transform="translate(-291.000000, -19.000000)">
            <g id="Group-27" transform="translate(291.000000, 19.000000)">
                <g id="Group-3" transform="translate(0.000000, 4.833033)">
                    <mask id="mask-2" fill="white">
                        <use xlink:href="#path-1"></use>
                    </mask>
                    <g id="Clip-2"></g>
                    <path d="M-7.69547325e-05,0.654655556 L1.7391,0.654655556 L1.7391,2.08032222 L1.77834691,2.08032222 C1.89377901,1.83298889 2.04768848,1.60898889 2.2416144,1.40676667 C2.43477078,1.20532222 2.65024403,1.03187778 2.8888037,0.888766667 C3.12659383,0.745655556 3.38747037,0.6321 3.67143333,0.545766667 C3.95462675,0.462544444 4.23858971,0.419766667 4.52178313,0.419766667 C4.80497654,0.419766667 5.0627749,0.459433333 5.29440864,0.537211111 L5.21668436,2.4311 C5.07508765,2.39143333 4.93349095,2.36032222 4.79266379,2.33387778 C4.65029753,2.30821111 4.50870082,2.29421111 4.36710412,2.29421111 C3.51675432,2.29421111 2.86648683,2.5361 2.4155321,3.01754444 C1.96457737,3.49821111 1.7391,4.24798889 1.7391,5.26376667 L1.7391,9.91098889 L-7.69547325e-05,9.91098889 L-7.69547325e-05,0.654655556 Z" id="Fill-1" fill="#0545B2" mask="url(#mask-2)"></path>
                </g>
                <path d="M15.5359292,9.35456667 C15.5220774,8.96334444 15.4612831,8.60556667 15.3520074,8.28045556 C15.2419621,7.95534444 15.077279,7.67145556 14.8587276,7.42956667 C14.6401761,7.19001111 14.3662173,7.00178889 14.0383901,6.8649 C13.7097934,6.72801111 13.3265588,6.65956667 12.8886864,6.65956667 C12.4638963,6.65956667 12.0737358,6.74045556 11.719744,6.90378889 C11.3642132,7.06712222 11.0648593,7.2779 10.8209128,7.53767778 C10.5761967,7.79901111 10.3861185,8.08834444 10.2506782,8.40645556 C10.1160074,8.72534444 10.0475177,9.04267778 10.0475177,9.35456667 L15.5359292,9.35456667 Z M10.0475177,10.7607889 C10.0475177,11.1644556 10.1344765,11.5315667 10.3091638,11.8644556 C10.4830815,12.1950111 10.7108675,12.4789 10.9948305,12.7122333 C11.2780239,12.9479 11.6066206,13.1299 11.9806206,13.2597889 C12.3530815,13.3896778 12.7393942,13.4550111 13.1395588,13.4550111 C13.6805506,13.4550111 14.1499745,13.3282333 14.5501391,13.0746778 C14.9487646,12.8211222 15.3166082,12.4851222 15.6513613,12.0690111 L16.9649786,13.0840111 C15.9991967,14.3479 14.6471021,14.9779 12.9079251,14.9779 C12.1853202,14.9779 11.532744,14.8542333 10.9455794,14.6076778 C10.3591844,14.3611222 9.86436543,14.0189 9.45881399,13.5825667 C9.052493,13.1470111 8.74005679,12.6329 8.52150535,12.0394556 C8.30295391,11.4467889 8.19290864,10.8059 8.19290864,10.1160111 C8.19290864,9.42612222 8.31141893,8.78523333 8.55074815,8.19256667 C8.78776872,7.5999 9.11636543,7.08578889 9.53499918,6.64945556 C9.95363292,6.21312222 10.4538387,5.8709 11.0325383,5.62434444 C11.612777,5.37623333 12.2445753,5.25334444 12.9263942,5.25334444 C13.7390362,5.25334444 14.4247029,5.39723333 14.9841638,5.6819 C15.5451638,5.96812222 16.0053531,6.34378889 16.3655012,6.80578889 C16.7271885,7.26778889 16.988065,7.7889 17.1489004,8.36678889 C17.3097358,8.94778889 17.3897687,9.53578889 17.3897687,10.1354556 L17.3897687,10.7607889 L10.0475177,10.7607889 Z" id="Fill-4" fill="#0545B2"></path>
                <path d="M27.959886,7.94787778 C27.6374457,7.60954444 27.2996144,7.3521 26.9456226,7.17632222 C26.5908613,7.00132222 26.1691494,6.91343333 25.6797173,6.91343333 C25.2033675,6.91343333 24.7878119,7.00132222 24.4338202,7.17632222 C24.0790588,7.3521 23.7827831,7.59398889 23.544993,7.89887778 C23.3064333,8.20532222 23.1263593,8.55687778 23.0032317,8.95354444 C22.8808737,9.35098889 22.8200794,9.76476667 22.8200794,10.1941 C22.8200794,10.6234333 22.8908778,11.0302111 23.0324745,11.4144333 C23.1740712,11.7986556 23.3741535,12.1338778 23.6319519,12.4201 C23.8889807,12.7071 24.1983387,12.9318778 24.5592564,13.0936556 C24.9194045,13.2569889 25.3257255,13.3386556 25.7766802,13.3386556 C26.2661123,13.3386556 26.6847461,13.2499889 27.0318119,13.0749889 C27.3804169,12.8992111 27.7020877,12.6425444 27.9983634,12.3034333 L29.2350259,13.5533222 C28.7840712,14.0604333 28.2592399,14.4252111 27.6605321,14.6468778 C27.0610547,14.8669889 26.4269477,14.9789889 25.7574416,14.9789889 C25.0486885,14.9789889 24.4007296,14.8615444 23.8151041,14.6266556 C23.2294786,14.3925444 22.723886,14.0635444 22.2983263,13.6404333 C21.8735362,13.2181 21.5449395,12.7102111 21.3133058,12.1175444 C21.0809025,11.5248778 20.9647008,10.8715444 20.9647008,10.1552111 C20.9647008,9.43887778 21.0809025,8.78165556 21.3133058,8.18198889 C21.5449395,7.5831 21.8696885,7.06976667 22.2883222,6.63965556 C22.706956,6.21032222 23.2094704,5.8751 23.7958654,5.63398889 C24.3822605,5.39287778 25.0356062,5.27232222 25.7574416,5.27232222 C26.4269477,5.27232222 27.0679807,5.39287778 27.6797708,5.63398889 C28.2915609,5.8751 28.8225486,6.24298889 29.2742728,6.73765556 L27.959886,7.94787778 Z" id="Fill-6" fill="#0545B2"></path>
                <path d="M32.655356,5.48768889 L34.3945329,5.48768889 L34.3945329,6.91335556 L34.4330103,6.91335556 C34.5492119,6.66602222 34.7031214,6.44202222 34.8970473,6.2398 C35.0902037,6.03835556 35.3049074,5.86491111 35.5442366,5.7218 C35.7812572,5.57868889 36.0421337,5.46513333 36.3268663,5.3788 C36.6100597,5.29557778 36.8940226,5.2528 37.177216,5.2528 C37.4604095,5.2528 37.7182078,5.29246667 37.9498416,5.37024444 L37.8728868,7.26413333 C37.7305206,7.22446667 37.5889239,7.19335556 37.4473272,7.16691111 C37.3057305,7.14124444 37.1633642,7.12724444 37.022537,7.12724444 C36.1714177,7.12724444 35.5211502,7.36913333 35.070965,7.85057778 C34.6200103,8.33124444 34.3945329,9.08102222 34.3945329,10.0968 L34.3945329,14.7440222 L32.655356,14.7440222 L32.655356,5.48768889 Z" id="Fill-8" fill="#0545B2"></path>
                <path d="M48.1905926,9.35456667 C48.1775103,8.96334444 48.116716,8.60556667 48.0082099,8.28045556 C47.8973951,7.95534444 47.7327119,7.67145556 47.5141605,7.42956667 C47.2948395,7.19001111 47.0216502,7.00178889 46.693823,6.8649 C46.3644568,6.72801111 45.9812222,6.65956667 45.5441193,6.65956667 C45.1185597,6.65956667 44.7283992,6.74045556 44.3744074,6.90378889 C44.0196461,7.06712222 43.7202922,7.2779 43.4755761,7.53767778 C43.2316296,7.79901111 43.0415514,8.08834444 42.9061111,8.40645556 C42.7706708,8.72534444 42.7029506,9.04267778 42.7029506,9.35456667 L48.1905926,9.35456667 Z M42.7029506,10.7607889 C42.7029506,11.1644556 42.7899095,11.5315667 42.9638272,11.8644556 C43.1385144,12.1950111 43.3655309,12.4789 43.6502634,12.7122333 C43.9326872,12.9479 44.2620535,13.1299 44.635284,13.2597889 C45.0085144,13.3896778 45.3948272,13.4550111 45.7949918,13.4550111 C46.335214,13.4550111 46.8054074,13.3282333 47.205572,13.0746778 C47.6041975,12.8211222 47.9712716,12.4851222 48.3067942,12.0690111 L49.6204115,13.0840111 C48.6546296,14.3479 47.302535,14.9779 45.5625885,14.9779 C44.8407531,14.9779 44.1874074,14.8542333 43.6010123,14.6076778 C43.0153868,14.3611222 42.5190288,14.0189 42.1142469,13.5825667 C41.7079259,13.1470111 41.3947202,12.6329 41.1769383,12.0394556 C40.9583868,11.4467889 40.8483416,10.8059 40.8483416,10.1160111 C40.8483416,9.42612222 40.9668519,8.78523333 41.2054115,8.19256667 C41.4432016,7.5999 41.7717984,7.08578889 42.1904321,6.64945556 C42.6090658,6.21312222 43.1085021,5.8709 43.6879712,5.62434444 C44.2682099,5.37623333 44.9000082,5.25334444 45.5818272,5.25334444 C46.3936996,5.25334444 47.0801358,5.39723333 47.6395967,5.6819 C48.2005967,5.96812222 48.660786,6.34378889 49.0217037,6.80578889 C49.3818519,7.26778889 49.6434979,7.7889 49.8043333,8.36678889 C49.9651687,8.94778889 50.0459712,9.53578889 50.0459712,10.1354556 L50.0459712,10.7607889 L42.7029506,10.7607889 Z" id="Fill-10" fill="#0545B2"></path>
                <path d="M59.0108128,10.2918667 C58.5998745,10.2918667 58.1766235,10.3136444 57.745677,10.3595333 C57.3131914,10.4054222 56.9214918,10.4933111 56.5667305,10.6239778 C56.2119691,10.7546444 55.9226193,10.9366444 55.697142,11.1707556 C55.4724342,11.4048667 55.3593107,11.7035333 55.3593107,12.0690889 C55.3593107,12.6034222 55.5363066,12.9868667 55.8910679,13.2217556 C56.2442901,13.4550889 56.7244877,13.5725333 57.3293519,13.5725333 C57.8072407,13.5725333 58.2127922,13.4916444 58.5475453,13.3290889 C58.8815288,13.1649778 59.1539486,12.9542 59.3586481,12.6944222 C59.5656564,12.4338667 59.7134095,12.1445333 59.802677,11.8248667 C59.892714,11.5059778 59.9381173,11.1902 59.9381173,10.8775333 L59.9381173,10.2918667 L59.0108128,10.2918667 Z M54.1034095,6.62075556 C54.5928416,6.1642 55.1592284,5.82275556 55.8033395,5.59486667 C56.4474506,5.36775556 57.0923313,5.25264444 57.7356728,5.25264444 C58.4059486,5.25264444 58.9823395,5.33742222 59.4656152,5.50697778 C59.9488909,5.67653333 60.3436687,5.90364444 60.6545658,6.19064444 C60.9631543,6.47764444 61.1917099,6.80586667 61.339463,7.17686667 C61.4879856,7.54864444 61.5618621,7.93597778 61.5618621,8.33886667 L61.5618621,13.0638667 C61.5618621,13.3897556 61.5687881,13.6899778 61.5811008,13.9629778 C61.5941831,14.2375333 61.6134218,14.4965333 61.6388169,14.7446444 L60.0927963,14.7446444 C60.0543189,14.2756444 60.0350802,13.8066444 60.0350802,13.3384222 L59.9966029,13.3384222 C59.6102901,13.9373111 59.1539486,14.3604222 58.6245,14.6077556 C58.0973601,14.8550889 57.4848004,14.9779778 56.7891296,14.9779778 C56.3643395,14.9779778 55.9580185,14.9204222 55.5717058,14.8029778 C55.185393,14.6855333 54.8475617,14.5105333 54.5582119,14.2756444 C54.2680926,14.0399778 54.0379979,13.7522 53.8710062,13.4068667 C53.7040144,13.0615333 53.6201337,12.6617556 53.6201337,12.2059778 C53.6201337,11.6063111 53.7524959,11.1062 54.0164506,10.7009778 C54.2804053,10.2988667 54.6405535,9.96986667 55.0984342,9.71631111 C55.5555453,9.4612 56.0896111,9.2792 56.7014012,9.16875556 C57.3131914,9.05831111 57.9680761,9.00231111 58.6637469,9.00231111 L59.9381173,9.00231111 L59.9381173,8.61186667 C59.9381173,8.37853333 59.892714,8.14442222 59.802677,7.90953333 C59.7134095,7.67464444 59.5779691,7.46231111 59.3971255,7.27486667 C59.217821,7.08586667 58.9923436,6.93575556 58.7206934,6.82531111 C58.4505823,6.71408889 58.1289115,6.65886667 57.7549115,6.65886667 C57.4201584,6.65886667 57.1277305,6.69231111 56.876858,6.75764444 C56.6244465,6.8222 56.3958909,6.90308889 56.1896523,7.00186667 C55.9834136,7.09908889 55.7964136,7.21264444 55.6294218,7.34331111 C55.4631996,7.4732 55.3015947,7.59686667 55.1469156,7.71353333 L54.1034095,6.62075556 Z" id="Fill-12" fill="#0545B2"></path>
                <path d="M70.9327938,7.01135556 L68.44023,7.01135556 L68.44023,11.2090222 C68.44023,11.4695778 68.447156,11.7270222 68.4602383,11.9805778 C68.472551,12.2349111 68.520263,12.4628 68.6049132,12.6650222 C68.6880243,12.8664667 68.8173082,13.0290222 68.9919955,13.1526889 C69.1651436,13.2771333 69.4198638,13.3385778 69.7546169,13.3385778 C69.9608556,13.3385778 70.1724811,13.3183556 70.3925716,13.2802444 C70.6103535,13.2405778 70.8104358,13.1690222 70.9905099,13.0648 L70.9905099,14.6662444 C70.7850407,14.7836889 70.5180078,14.8645778 70.1894111,14.9104667 C69.8608144,14.9563556 69.6060942,14.9789111 69.4267897,14.9789111 C68.7557444,14.9789111 68.2370695,14.8840222 67.870765,14.6958 C67.5036909,14.5075778 67.2328103,14.2633556 67.0588926,13.9631333 C66.8849749,13.6636889 66.7818556,13.3284667 66.7495346,12.9574667 C66.7172136,12.5864667 66.7018226,12.2123556 66.7018226,11.8343556 L66.7018226,7.01135556 L64.691765,7.01135556 L64.691765,5.48768889 L66.7018226,5.48768889 L66.7018226,2.88991111 L68.44023,2.88991111 L68.44023,5.48768889 L70.9327938,5.48768889 L70.9327938,7.01135556 Z" id="Fill-14" fill="#0545B2"></path>
                <mask id="mask-4" fill="white">
                    <use xlink:href="#path-3"></use>
                </mask>
                <g id="Clip-17"></g>
                <path d="M75.2424897,14.7442556 L76.9808971,14.7442556 L76.9808971,5.48714444 L75.2424897,5.48714444 L75.2424897,14.7442556 Z M74.8361687,2.16758889 C74.8361687,1.81603333 74.9616049,1.51347778 75.2124774,1.25992222 C75.4641193,1.00558889 75.7634733,0.878811111 76.1120782,0.878811111 C76.4599136,0.878811111 76.7584979,1.00558889 77.0101399,1.25992222 C77.2617819,1.51347778 77.3864486,1.81603333 77.3864486,2.16758889 C77.3864486,2.51914444 77.2617819,2.82247778 77.0101399,3.07603333 C76.7584979,3.32881111 76.4599136,3.45636667 76.1120782,3.45636667 C75.7634733,3.45636667 75.4641193,3.32881111 75.2124774,3.07603333 C74.9616049,2.82247778 74.8361687,2.51914444 74.8361687,2.16758889 L74.8361687,2.16758889 Z" id="Fill-16" fill="#0545B2" mask="url(#mask-4)"></path>
                <polygon id="Fill-18" fill="#0545B2" mask="url(#mask-4)" points="80.5754527 5.48768889 82.5847407 5.48768889 85.3289465 12.5755778 87.9569506 5.48768889 89.8115597 5.48768889 86.2170041 14.7440222 84.304679 14.7440222"></polygon>
                <path d="M100.071165,9.35456667 C100.058082,8.96334444 99.9972881,8.60556667 99.8872428,8.28045556 C99.7779671,7.95534444 99.613284,7.67145556 99.3955021,7.42956667 C99.1754115,7.19001111 98.9022222,7.00178889 98.5736255,6.8649 C98.2457984,6.72801111 97.8617942,6.65956667 97.4246914,6.65956667 C96.9991317,6.65956667 96.6089712,6.74045556 96.2549794,6.90378889 C95.9002181,7.06712222 95.6008642,7.2779 95.3569177,7.53767778 C95.1122016,7.79901111 94.922893,8.08834444 94.7866831,8.40645556 C94.6512428,8.72534444 94.5835226,9.04267778 94.5835226,9.35456667 L100.071165,9.35456667 Z M94.5835226,10.7607889 C94.5835226,11.1644556 94.671251,11.5315667 94.8451687,11.8644556 C95.0190864,12.1950111 95.2468724,12.4789 95.5316049,12.7122333 C95.8140288,12.9479 96.1426255,13.1299 96.515856,13.2597889 C96.8890864,13.3896778 97.2761687,13.4550111 97.6755638,13.4550111 C98.2165556,13.4550111 98.686749,13.3282333 99.086144,13.0746778 C99.4847695,12.8211222 99.8518436,12.4851222 100.187366,12.0690111 L101.500984,13.0840111 C100.535971,14.3479 99.1823374,14.9779 97.44393,14.9779 C96.7213251,14.9779 96.0679794,14.8542333 95.4823539,14.6076778 C94.8959588,14.3611222 94.4003704,14.0189 93.9948189,13.5825667 C93.5884979,13.1470111 93.2760617,12.6329 93.0575103,12.0394556 C92.8389588,11.4467889 92.7289136,10.8059 92.7289136,10.1160111 C92.7289136,9.42612222 92.8474239,8.78523333 93.0859835,8.19256667 C93.3245432,7.5999 93.6523704,7.08578889 94.0710041,6.64945556 C94.4904074,6.21312222 94.9898436,5.8709 95.5693128,5.62434444 C96.1487819,5.37623333 96.7813498,5.25334444 97.4631687,5.25334444 C98.2742716,5.25334444 98.9607078,5.39723333 99.5209383,5.6819 C100.081169,5.96812222 100.541358,6.34378889 100.902276,6.80578889 C101.262424,7.26778889 101.52407,7.7889 101.685675,8.36678889 C101.84651,8.94778889 101.926543,9.53578889 101.926543,10.1354556 L101.926543,10.7607889 L94.5835226,10.7607889 Z" id="Fill-19" fill="#0545B2" mask="url(#mask-4)"></path>
                <path d="M118.238946,10.2136222 C117.917275,10.2136222 117.514802,10.2299556 117.031526,10.2618444 C116.54825,10.2945111 116.084983,10.3730667 115.640184,10.4959556 C115.195386,10.6196222 114.815999,10.8132889 114.500485,11.0722889 C114.184201,11.3336222 114.025674,11.6906222 114.025674,12.1464 C114.025674,12.4466222 114.087238,12.7025111 114.210365,12.9187333 C114.332723,13.1334 114.497407,13.3091778 114.703645,13.4445111 C114.909114,13.5821778 115.13767,13.6794 115.389312,13.7385111 C115.640184,13.7968444 115.894905,13.8271778 116.152703,13.8271778 C116.61597,13.8271778 117.018444,13.7486222 117.359353,13.5930667 C117.701802,13.4359556 117.988073,13.2244 118.219707,12.9568444 C118.451341,12.6916222 118.62218,12.3781778 118.732226,12.0196222 C118.841501,11.6618444 118.896139,11.2815111 118.896139,10.8778444 L118.896139,10.2136222 L118.238946,10.2136222 Z M118.896139,9.15895556 L118.896139,8.92484444 C118.896139,7.34906667 118.123514,6.56195556 116.577493,6.56195556 C115.520905,6.56195556 114.599756,6.91973333 113.814818,7.63606667 L113.041423,6.71751111 C113.891773,5.83317778 115.166913,5.38984444 116.867612,5.38984444 C117.304715,5.38984444 117.727197,5.45595556 118.132748,5.58506667 C118.5383,5.71573333 118.889983,5.91406667 119.184719,6.18006667 C119.482534,6.44684444 119.720324,6.78362222 119.900398,7.18651111 C120.081242,7.59017778 120.171279,8.0724 120.171279,8.6324 L120.171279,12.7141778 C120.171279,13.0649556 120.18744,13.4328444 120.21976,13.8170667 C120.252081,14.2012889 120.287481,14.5162889 120.325958,14.7644 L119.088526,14.7644 C119.050818,14.5419556 119.022345,14.3016222 119.002337,14.0418444 C118.983098,13.7812889 118.973863,13.5277333 118.973863,13.2796222 L118.935386,13.2796222 C118.561386,13.8917333 118.119666,14.3311778 117.610995,14.5979556 C117.101555,14.8639556 116.4813,14.9977333 115.747151,14.9977333 C115.346987,14.9977333 114.960674,14.9432889 114.586674,14.8312889 C114.213444,14.7224 113.881769,14.5520667 113.591649,14.3249556 C113.3023,14.0970667 113.070666,13.8170667 112.896748,13.4849556 C112.72283,13.1520667 112.636641,12.7655111 112.636641,12.3229556 C112.636641,11.5809556 112.82518,10.9984 113.205337,10.5752889 C113.585493,10.1521778 114.062612,9.8364 114.634386,9.62873333 C115.208468,9.41951111 115.820258,9.28962222 116.470526,9.23751111 C117.121563,9.1854 117.717193,9.15895556 118.258184,9.15895556 L118.896139,9.15895556 Z" id="Fill-20" fill="#0545B2" mask="url(#mask-4)"></path>
                <path d="M133.311223,10.1938667 C133.311223,9.68753333 133.23042,9.21075556 133.069585,8.76742222 C132.90798,8.3272 132.679424,7.94142222 132.383918,7.61631111 C132.086873,7.2912 131.729033,7.03453333 131.3104,6.84397778 C130.890996,6.65653333 130.418494,6.56086667 129.891354,6.56086667 C129.362675,6.56086667 128.8794,6.65653333 128.441527,6.84397778 C128.003655,7.03453333 127.621959,7.2912 127.301058,7.61631111 C126.979387,7.94142222 126.727745,8.3272 126.548441,8.76742222 C126.368367,9.21075556 126.276791,9.68753333 126.276791,10.1938667 C126.276791,10.7009778 126.368367,11.1785333 126.548441,11.6187556 C126.727745,12.0613111 126.979387,12.4463111 127.301058,12.7722 C127.621959,13.0973111 128.003655,13.3539778 128.441527,13.5445333 C128.8794,13.7319778 129.362675,13.8276444 129.891354,13.8276444 C130.418494,13.8276444 130.890996,13.7319778 131.3104,13.5445333 C131.729033,13.3539778 132.086873,13.0973111 132.383918,12.7722 C132.679424,12.4463111 132.90798,12.0613111 133.069585,11.6187556 C133.23042,11.1785333 133.311223,10.7009778 133.311223,10.1938667 L133.311223,10.1938667 Z M125.060136,5.62364444 L126.336046,5.62364444 L126.336046,7.14731111 L126.373753,7.14731111 C126.579992,6.8362 126.823939,6.56864444 127.107902,6.34775556 C127.391095,6.12608889 127.687371,5.94253333 127.997498,5.8002 C128.306087,5.65631111 128.625449,5.55286667 128.954046,5.48675556 C129.282642,5.4222 129.594309,5.38953333 129.891354,5.38953333 C130.599338,5.38953333 131.245758,5.51086667 131.832922,5.7512 C132.419317,5.99231111 132.92414,6.32597778 133.3497,6.75686667 C133.77449,7.18697778 134.105395,7.69408889 134.344725,8.27975556 C134.582515,8.86542222 134.702564,9.50397778 134.702564,10.1938667 C134.702564,10.8845333 134.582515,11.5215333 134.344725,12.1079778 C134.105395,12.6944222 133.77449,13.2015333 133.3497,13.6308667 C132.92414,14.0609778 132.419317,14.3954222 131.832922,14.6373111 C131.245758,14.8776444 130.599338,14.9989778 129.891354,14.9989778 C129.594309,14.9989778 129.282642,14.9663111 128.954046,14.9017556 C128.625449,14.8356444 128.306087,14.7322 127.997498,14.5883111 C127.687371,14.4452 127.391095,14.2632 127.107902,14.0407556 C126.823939,13.8198667 126.579992,13.5530889 126.373753,13.2404222 L126.336046,13.2404222 L126.336046,20.3882 L125.060136,20.3882 L125.060136,5.62364444 Z" id="Fill-21" fill="#0545B2" mask="url(#mask-4)"></path>
                <path d="M147.048104,10.1938667 C147.048104,9.68753333 146.968071,9.21075556 146.808005,8.76742222 C146.64717,8.3272 146.417075,7.94142222 146.121569,7.61631111 C145.824524,7.2912 145.467454,7.03453333 145.04882,6.84397778 C144.629417,6.65653333 144.156145,6.56086667 143.629775,6.56086667 C143.100326,6.56086667 142.617051,6.65653333 142.179948,6.84397778 C141.741306,7.03453333 141.36038,7.2912 141.038709,7.61631111 C140.717038,7.94142222 140.466166,8.3272 140.285322,8.76742222 C140.106018,9.21075556 140.015211,9.68753333 140.015211,10.1938667 C140.015211,10.7009778 140.106018,11.1785333 140.285322,11.6187556 C140.466166,12.0613111 140.717038,12.4463111 141.038709,12.7722 C141.36038,13.0973111 141.741306,13.3539778 142.179948,13.5445333 C142.617051,13.7319778 143.100326,13.8276444 143.629775,13.8276444 C144.156145,13.8276444 144.629417,13.7319778 145.04882,13.5445333 C145.467454,13.3539778 145.824524,13.0973111 146.121569,12.7722 C146.417075,12.4463111 146.64717,12.0613111 146.808005,11.6187556 C146.968071,11.1785333 147.048104,10.7009778 147.048104,10.1938667 L147.048104,10.1938667 Z M138.797787,5.62364444 L140.073697,5.62364444 L140.073697,7.14731111 L140.111405,7.14731111 C140.317643,6.8362 140.562359,6.56864444 140.845553,6.34775556 C141.129516,6.12608889 141.425791,5.94253333 141.735149,5.8002 C142.043738,5.65631111 142.36387,5.55286667 142.692466,5.48675556 C143.021063,5.4222 143.331191,5.38953333 143.629775,5.38953333 C144.337758,5.38953333 144.983409,5.51086667 145.570573,5.7512 C146.156968,5.99231111 146.661791,6.32597778 147.088121,6.75686667 C147.512911,7.18697778 147.843816,7.69408889 148.083145,8.27975556 C148.320166,8.86542222 148.440215,9.50397778 148.440215,10.1938667 C148.440215,10.8845333 148.320166,11.5215333 148.083145,12.1079778 C147.843816,12.6944222 147.512911,13.2015333 147.088121,13.6308667 C146.661791,14.0609778 146.156968,14.3954222 145.570573,14.6373111 C144.983409,14.8776444 144.337758,14.9989778 143.629775,14.9989778 C143.331191,14.9989778 143.021063,14.9663111 142.692466,14.9017556 C142.36387,14.8356444 142.043738,14.7322 141.735149,14.5883111 C141.425791,14.4452 141.129516,14.2632 140.845553,14.0407556 C140.562359,13.8198667 140.317643,13.5530889 140.111405,13.2404222 L140.073697,13.2404222 L140.073697,20.3882 L138.797787,20.3882 L138.797787,5.62364444 Z" id="Fill-22" fill="#0545B2" mask="url(#mask-4)"></path>
                <path d="M157.675245,10.2136222 C157.353574,10.2136222 156.95264,10.2299556 156.468595,10.2618444 C155.986088,10.2945111 155.521282,10.3730667 155.076484,10.4959556 C154.631685,10.6196222 154.252298,10.8132889 153.937553,11.0722889 C153.62127,11.3336222 153.462743,11.6906222 153.462743,12.1464 C153.462743,12.4466222 153.524307,12.7025111 153.647434,12.9187333 C153.769023,13.1334 153.934475,13.3091778 154.139944,13.4445111 C154.345414,13.5821778 154.573969,13.6794 154.825611,13.7385111 C155.076484,13.7968444 155.330434,13.8271778 155.589002,13.8271778 C156.053809,13.8271778 156.454743,13.7486222 156.796422,13.5930667 C157.138101,13.4359556 157.424372,13.2244 157.657545,12.9568444 C157.888409,12.6916222 158.059249,12.3781778 158.169294,12.0196222 C158.2778,11.6618444 158.332438,11.2815111 158.332438,10.8778444 L158.332438,10.2136222 L157.675245,10.2136222 Z M158.332438,9.15895556 L158.332438,8.92484444 C158.332438,7.34906667 157.560582,6.56195556 156.014562,6.56195556 C154.957973,6.56195556 154.036825,6.91973333 153.250348,7.63606667 L152.477722,6.71751111 C153.328842,5.83317778 154.603981,5.38984444 156.303912,5.38984444 C156.741014,5.38984444 157.163496,5.45595556 157.569047,5.58506667 C157.975368,5.71573333 158.327051,5.91406667 158.621788,6.18006667 C158.918833,6.44684444 159.157393,6.78362222 159.337467,7.18651111 C159.518311,7.59017778 159.607578,8.0724 159.607578,8.6324 L159.607578,12.7141778 C159.607578,13.0649556 159.623739,13.4328444 159.65606,13.8170667 C159.688381,14.2012889 159.724549,14.5162889 159.763027,14.7644 L158.525595,14.7644 C158.487117,14.5419556 158.458644,14.3016222 158.438636,14.0418444 C158.419397,13.7812889 158.410163,13.5277333 158.410163,13.2796222 L158.371685,13.2796222 C157.997685,13.8917333 157.555965,14.3311778 157.048833,14.5979556 C156.538623,14.8639556 155.917599,14.9977333 155.182681,14.9977333 C154.784056,14.9977333 154.396973,14.9432889 154.023743,14.8312889 C153.650512,14.7224 153.318068,14.5520667 153.028718,14.3249556 C152.738599,14.0970667 152.506965,13.8170667 152.333047,13.4849556 C152.15913,13.1520667 152.072171,12.7655111 152.072171,12.3229556 C152.072171,11.5809556 152.261479,10.9984 152.642405,10.5752889 C153.021792,10.1521778 153.498142,9.8364 154.072224,9.62873333 C154.645537,9.41951111 155.256558,9.28962222 155.907595,9.23751111 C156.557862,9.1854 157.154261,9.15895556 157.695253,9.15895556 L158.332438,9.15895556 Z" id="Fill-23" fill="#0545B2" mask="url(#mask-4)"></path>
                <path d="M164.632722,8.47575556 C164.632722,8.07131111 164.621949,7.66142222 164.603479,7.24531111 C164.583471,6.82842222 164.567311,6.28786667 164.554228,5.62442222 L165.811669,5.62442222 L165.811669,7.32308889 L165.849377,7.32308889 C165.939414,7.07575556 166.068698,6.83853333 166.236459,6.61064444 C166.403451,6.38275556 166.605842,6.17742222 166.845171,5.99464444 C167.082961,5.81342222 167.359998,5.6672 167.675512,5.55597778 C167.991027,5.44553333 168.348097,5.39031111 168.748261,5.39031111 C169.10764,5.39031111 169.424693,5.4292 169.694035,5.50697778 L169.443163,6.77553333 C169.276171,6.71097778 169.030685,6.67831111 168.709014,6.67831111 C168.219582,6.67831111 167.800949,6.7732 167.453883,6.9622 C167.105278,7.15042222 166.815928,7.39075556 166.583525,7.68475556 C166.351121,7.97642222 166.181821,8.29297778 166.071776,8.63208889 C165.9625,8.9712 165.907862,9.29553333 165.907862,9.6082 L165.907862,14.7640889 L164.632722,14.7640889 L164.632722,8.47575556 Z" id="Fill-24" fill="#0545B2" mask="url(#mask-4)"></path>
                <path d="M179.529927,9.49052222 C179.529927,8.61863333 179.272129,7.91241111 178.756532,7.37185556 C178.241705,6.83207778 177.520639,6.56141111 176.592565,6.56141111 C176.179318,6.56141111 175.781462,6.64307778 175.39438,6.80563333 C175.008067,6.96818889 174.670236,7.18674444 174.380886,7.45896667 C174.090767,7.73352222 173.859133,8.04618889 173.683676,8.39696667 C173.510528,8.74852222 173.4228,9.11485556 173.4228,9.49052222 L179.529927,9.49052222 Z M173.385861,10.5451889 C173.4228,11.0009667 173.532845,11.4310778 173.712919,11.8355222 C173.893763,12.2376333 174.132322,12.5860778 174.428598,12.8793 C174.725643,13.1725222 175.065014,13.4035222 175.452865,13.5723 C175.839178,13.7418556 176.257812,13.8266333 176.707997,13.8266333 C177.391355,13.8266333 177.979289,13.6679667 178.477186,13.3475222 C178.971236,13.0294111 179.349853,12.6615222 179.606882,12.2446333 L180.592672,13.0644111 C180.05245,13.7543 179.454512,14.2497444 178.805014,14.5491889 C178.155516,14.8494111 177.455228,14.9979667 176.707997,14.9979667 C176.03926,14.9979667 175.416697,14.8781889 174.844153,14.6370778 C174.270841,14.3967444 173.776791,14.0607444 173.365084,13.6306333 C172.952606,13.2013 172.627857,12.6941889 172.390067,12.1077444 C172.151507,11.5220778 172.032997,10.8843 172.032997,10.1944111 C172.032997,9.50452222 172.14766,8.86596667 172.380833,8.2803 C172.612466,7.69385556 172.934137,7.18674444 173.347384,6.75663333 C173.759092,6.3273 174.242367,5.9913 174.796442,5.75096667 C175.348977,5.50985556 175.947684,5.39085556 176.592565,5.39085556 C177.275153,5.39085556 177.886174,5.51374444 178.427935,5.7603 C178.968927,6.00841111 179.42296,6.33663333 179.790804,6.74807778 C180.157878,7.15718889 180.438763,7.63863333 180.631149,8.19241111 C180.824306,8.74541111 180.921269,9.33418889 180.921269,9.9603 L180.921269,10.5451889 L173.385861,10.5451889 Z" id="Fill-25" fill="#0545B2" mask="url(#mask-4)"></path>
                <polygon id="Fill-26" fill="#0545B2" mask="url(#mask-4)" points="185.461675 14.7644778 186.736815 14.7644778 186.736815 -7.77777778e-05 185.461675 -7.77777778e-05"></polygon>
            </g>
        </g>
    </g>
</svg>